<svg width="16" height="16" viewBox="0 0 16 16" fill="none" xmlns="http://www.w3.org/2000/svg">
<circle cx="8" cy="8" r="8" fill="#4DB1F7"/>
<path d="M3 6.18861C3 6.01345 3 5.92587 3.00731 5.85211C3.0778 5.14063 3.64063 4.5778 4.35211 4.50731C4.42587 4.5 4.51818 4.5 4.70279 4.5C4.77393 4.5 4.80949 4.5 4.83969 4.49817C5.22531 4.47482 5.56298 4.23144 5.70707 3.873C5.71836 3.84493 5.7289 3.81329 5.75 3.75C5.7711 3.68671 5.78164 3.65507 5.79293 3.627C5.93702 3.26856 6.27469 3.02518 6.66031 3.00183C6.69051 3 6.72386 3 6.79057 3H9.20943C9.27614 3 9.30949 3 9.33969 3.00183C9.72531 3.02518 10.063 3.26856 10.2071 3.627C10.2184 3.65507 10.2289 3.68671 10.25 3.75C10.2711 3.81329 10.2816 3.84493 10.2929 3.873C10.437 4.23144 10.7747 4.47482 11.1603 4.49817C11.1905 4.5 11.2261 4.5 11.2972 4.5C11.4818 4.5 11.5741 4.5 11.6479 4.50731C12.3594 4.5778 12.9222 5.14063 12.9927 5.85211C13 5.92587 13 6.01345 13 6.18861V10.1C13 10.9401 13 11.3601 12.8365 11.681C12.6927 11.9632 12.4632 12.1927 12.181 12.3365C11.8601 12.5 11.4401 12.5 10.6 12.5H5.4C4.55992 12.5 4.13988 12.5 3.81901 12.3365C3.53677 12.1927 3.3073 11.9632 3.16349 11.681C3 11.3601 3 10.9401 3 10.1V6.18861Z" stroke="#F4F4F4" stroke-linecap="round" stroke-linejoin="round"/>
<path d="M8 10.25C9.10457 10.25 10 9.35457 10 8.25C10 7.14543 9.10457 6.25 8 6.25C6.89543 6.25 6 7.14543 6 8.25C6 9.35457 6.89543 10.25 8 10.25Z" stroke="#F4F4F4" stroke-linecap="round" stroke-linejoin="round"/>
</svg>
