<svg width="20" height="21" viewBox="0 0 20 21" fill="none" xmlns="http://www.w3.org/2000/svg">
<path d="M11.9998 20.127H7.99977M15.9998 7.12695C15.9998 5.53565 15.3676 4.00953 14.2424 2.88431C13.1172 1.75909 11.5911 1.12695 9.99977 1.12695C8.40848 1.12695 6.88235 1.75909 5.75713 2.88431C4.63192 4.00953 3.99977 5.53565 3.99977 7.12695C3.99977 10.2171 3.22024 12.3329 2.34944 13.7324C1.6149 14.9128 1.24763 15.5031 1.2611 15.6677C1.27601 15.85 1.31463 15.9196 1.46155 16.0285C1.59423 16.127 2.19237 16.127 3.38863 16.127H16.6109C17.8072 16.127 18.4053 16.127 18.538 16.0285C18.6849 15.9196 18.7235 15.85 18.7384 15.6677C18.7519 15.5031 18.3846 14.9128 17.6501 13.7324C16.7793 12.3329 15.9998 10.2171 15.9998 7.12695Z" stroke="#101828" stroke-width="1.5" stroke-linecap="round" stroke-linejoin="round"/>
</svg>
