<svg width="24" height="25" viewBox="0 0 24 25" fill="none" xmlns="http://www.w3.org/2000/svg">
<path d="M12 13.1875C12.5523 13.1875 13 12.7398 13 12.1875C13 11.6352 12.5523 11.1875 12 11.1875C11.4477 11.1875 11 11.6352 11 12.1875C11 12.7398 11.4477 13.1875 12 13.1875Z" stroke="black" stroke-width="1.5" stroke-linecap="round" stroke-linejoin="round"/>
<path d="M19 13.1875C19.5523 13.1875 20 12.7398 20 12.1875C20 11.6352 19.5523 11.1875 19 11.1875C18.4477 11.1875 18 11.6352 18 12.1875C18 12.7398 18.4477 13.1875 19 13.1875Z" stroke="black" stroke-width="1.5" stroke-linecap="round" stroke-linejoin="round"/>
<path d="M5 13.1875C5.55228 13.1875 6 12.7398 6 12.1875C6 11.6352 5.55228 11.1875 5 11.1875C4.44772 11.1875 4 11.6352 4 12.1875C4 12.7398 4.44772 13.1875 5 13.1875Z" stroke="black" stroke-width="1.5" stroke-linecap="round" stroke-linejoin="round"/>
</svg>
