<svg width="69" height="20" viewBox="0 0 69 20" fill="none" xmlns="http://www.w3.org/2000/svg">
<path d="M32.4524 7.50059C32.3484 6.48895 31.5079 5.90624 30.2592 5.91433C28.9385 5.90624 28.1541 6.55369 28.1461 7.43585C28.1381 8.42321 29.1706 8.82787 30.1312 9.05448L31.2197 9.34583C32.9487 9.75049 34.6136 10.6731 34.6136 12.7126C34.6136 14.7683 33.0047 16.1765 30.2272 16.1765C27.5297 16.1765 25.8168 14.8654 25.7288 12.5507H27.7779C27.8739 13.7728 28.8905 14.3717 30.2112 14.3798C31.5799 14.3717 32.5245 13.7 32.5325 12.6964C32.5245 11.7738 31.692 11.3853 30.4353 11.0616L29.1226 10.7217C27.2176 10.2199 26.0329 9.24872 26.0329 7.56534C26.0329 5.49349 27.8499 4.11765 30.2912 4.11765C32.7486 4.11765 34.4215 5.51777 34.4535 7.50059H32.4524Z" fill="black"/>
<path d="M36.8196 15.9984H34.5944L38.6766 4.27951H41.238L45.3362 15.9984H43.111L42.1425 13.1011H37.7801L36.8196 15.9984ZM38.3404 11.4015H41.5822L40.0053 6.67509H39.9093L38.3404 11.4015Z" fill="black"/>
<path d="M52.0246 7.50059C51.9206 6.48895 51.0801 5.90624 49.8315 5.91433C48.5107 5.90624 47.7263 6.55369 47.7183 7.43585C47.7103 8.42321 48.7429 8.82787 49.7034 9.05448L50.792 9.34583C52.5209 9.75049 54.1858 10.6731 54.1858 12.7126C54.1858 14.7683 52.5769 16.1765 49.7994 16.1765C47.102 16.1765 45.389 14.8654 45.301 12.5507H47.3501C47.4462 13.7728 48.4627 14.3717 49.7834 14.3798C51.1522 14.3717 52.0967 13.7 52.1047 12.6964C52.0967 11.7738 51.2642 11.3853 50.0075 11.0616L48.6948 10.7217C46.7898 10.2199 45.6052 9.24872 45.6052 7.56534C45.6052 5.49349 47.4221 4.11765 49.8635 4.11765C52.3208 4.11765 53.9937 5.51777 54.0257 7.50059H52.0246Z" fill="black"/>
<path d="M55.0951 4.27951H57.6565L61.0984 12.7935H61.2425L64.6843 4.27951H67.2457V15.9984H65.2446V7.93762H65.1326L61.9148 15.966H60.426L57.2083 7.90525H57.1122V15.9984H55.0951V4.27951Z" fill="black"/>
<g clip-path="url(#clip0_2432_276171)">
<path d="M12.2585 5.5759C11.9413 3.52197 10.7088 1.58789 8.85184 0.629164C4.89672 -1.41145 -0.145485 1.78762 -0.000100484 6.28163C0.0990254 9.23436 2.37562 11.7443 5.26679 12.1505C5.32296 12.1571 5.37913 12.1638 5.43531 12.1704C5.4287 12.287 5.41878 12.4068 5.40226 12.5266C5.38574 12.6531 5.35931 12.7796 5.32957 12.9061C5.16106 13.6085 4.79099 14.2577 4.27553 14.7603C3.99798 15.03 3.67747 15.2563 3.33383 15.4294C3.32062 15.4361 3.3041 15.4427 3.29088 15.4494C3.17193 15.5193 3.08932 15.6491 3.08932 15.7989C3.08932 16.0453 3.30079 16.1518 3.51887 16.1618C3.81294 16.1751 4.10702 16.0819 4.39118 16.0186C4.68195 15.9521 4.96941 15.8755 5.25688 15.7856C5.8252 15.6059 6.38031 15.3795 6.90898 15.0999C6.99819 15.0533 7.0874 15.0033 7.17662 14.9534C7.26253 14.9035 7.34513 14.8569 7.42774 14.8036C9.85302 13.3222 11.8785 10.5626 12.2651 7.64647C12.3543 6.96072 12.3543 6.26831 12.2486 5.58256L12.2585 5.5759Z" fill="#01A0FC"/>
<path d="M19.7163 9.33422C19.3991 7.28029 18.1666 5.34621 16.3096 4.38748C12.3545 2.3502 7.3123 5.54594 7.46429 10.0399C7.56342 12.9927 9.84001 15.5027 12.7312 15.9088C12.7874 15.9154 12.8435 15.9221 12.8997 15.9288C12.8931 16.0453 12.8832 16.1651 12.8667 16.285C12.8501 16.4115 12.8237 16.538 12.794 16.6644C12.6254 17.3668 12.2554 18.016 11.7399 18.5186C11.4624 18.7883 11.1419 19.0146 10.7982 19.1877C10.785 19.1944 10.7685 19.2011 10.7553 19.2077C10.6363 19.2776 10.5537 19.4075 10.5537 19.5573C10.5537 19.8036 10.7652 19.9101 10.9833 19.9201C11.2773 19.9334 11.5714 19.8402 11.8556 19.777C12.1463 19.7104 12.4338 19.6338 12.7213 19.5439C13.2896 19.3642 13.8447 19.1378 14.3734 18.8582C14.4626 18.8116 14.5518 18.7617 14.641 18.7117C14.7269 18.6618 14.8095 18.6152 14.8921 18.5619C17.3174 17.0806 19.3429 14.3209 19.7295 11.4048C19.8187 10.719 19.8187 10.0266 19.713 9.34088L19.7163 9.33422Z" fill="#3AE894"/>
</g>
<defs>
<clipPath id="clip0_2432_276171">
<rect width="19.8814" height="20" fill="white"/>
</clipPath>
</defs>
</svg>
