<svg width="21" height="21" viewBox="0 0 21 21" fill="none" xmlns="http://www.w3.org/2000/svg">
<path d="M12.4364 5.70288C12.1146 3.64895 10.8643 1.71486 8.98042 0.756139C4.96798 -1.28447 -0.147304 1.91459 0.000188198 6.4086C0.100751 9.36133 2.41034 11.8713 5.34341 12.2774C5.4004 12.2841 5.45738 12.2908 5.51437 12.2974C5.50766 12.4139 5.49761 12.5338 5.48085 12.6536C5.46409 12.7801 5.43727 12.9066 5.4071 13.0331C5.23614 13.7355 4.86071 14.3846 4.33779 14.8873C4.05621 15.1569 3.73106 15.3833 3.38244 15.5564C3.36903 15.5631 3.35227 15.5697 3.33886 15.5764C3.21819 15.6463 3.13439 15.7761 3.13439 15.9259C3.13439 16.1722 3.34892 16.2788 3.57016 16.2888C3.86849 16.3021 4.16683 16.2089 4.45511 16.1456C4.75009 16.079 5.04172 16.0025 5.33335 15.9126C5.90991 15.7328 6.47306 15.5065 7.0094 15.2268C7.0999 15.1802 7.19041 15.1303 7.28092 15.0804C7.36807 15.0304 7.45187 14.9838 7.53567 14.9306C9.9961 13.4492 12.0509 10.6896 12.4431 7.77345C12.5336 7.0877 12.5336 6.39529 12.4264 5.70953L12.4364 5.70288Z" fill="#01A0FC"/>
<path d="M20.0018 9.46121C19.68 7.40728 18.4297 5.47319 16.5458 4.51447C12.5333 2.47719 7.41806 5.67292 7.57225 10.1669C7.67281 13.1197 9.9824 15.6296 12.9155 16.0358C12.9725 16.0424 13.0294 16.0491 13.0864 16.0557C13.0797 16.1723 13.0697 16.2921 13.0529 16.4119C13.0361 16.5384 13.0093 16.6649 12.9792 16.7914C12.8082 17.4938 12.4328 18.143 11.9098 18.6456C11.6283 18.9153 11.3031 19.1416 10.9545 19.3147C10.9411 19.3214 10.9243 19.3281 10.9109 19.3347C10.7903 19.4046 10.7065 19.5344 10.7065 19.6842C10.7065 19.9306 10.921 20.0371 11.1422 20.0471C11.4406 20.0604 11.7389 19.9672 12.0272 19.9039C12.3222 19.8374 12.6138 19.7608 12.9054 19.6709C13.482 19.4912 14.0451 19.2648 14.5815 18.9852C14.672 18.9386 14.7625 18.8886 14.853 18.8387C14.9401 18.7888 15.0239 18.7422 15.1077 18.6889C17.5682 17.2075 19.623 14.4479 20.0152 11.5318C20.1057 10.846 20.1057 10.1536 19.9984 9.46786L20.0018 9.46121Z" fill="#3AE894"/>
</svg>
