<svg width="20" height="20" viewBox="0 0 20 20" fill="none" xmlns="http://www.w3.org/2000/svg">
<path d="M19 6.79639L19 0.796387M19 0.796387H13M19 0.796387L11 8.79639M8 2.79639H5.8C4.11984 2.79639 3.27976 2.79639 2.63803 3.12337C2.07354 3.41099 1.6146 3.86993 1.32698 4.43442C1 5.07615 1 5.91623 1 7.59639V13.9964C1 15.6765 1 16.5166 1.32698 17.1584C1.6146 17.7228 2.07354 18.1818 2.63803 18.4694C3.27976 18.7964 4.11984 18.7964 5.8 18.7964H12.2C13.8802 18.7964 14.7202 18.7964 15.362 18.4694C15.9265 18.1818 16.3854 17.7228 16.673 17.1584C17 16.5166 17 15.6765 17 13.9964V11.7964" stroke="currentColor" stroke-width="1.5" stroke-linecap="round" stroke-linejoin="round"/>
</svg>
