<svg width="11" height="16" viewBox="0 0 11 16" fill="none" xmlns="http://www.w3.org/2000/svg">
<path fill-rule="evenodd" clip-rule="evenodd" d="M0 0.5C0 0.223858 0.223858 0 0.5 0H10.5C10.7761 0 11 0.223858 11 0.5V15.5C11 15.7761 10.7761 16 10.5 16H0.5C0.223858 16 0 15.7761 0 15.5V0.5ZM1.83337 2.3824C1.83337 2.10626 2.05723 1.8824 2.33337 1.8824H4.08337C4.35952 1.8824 4.58337 2.10626 4.58337 2.3824V3.26475C4.58337 3.54089 4.35952 3.76475 4.08337 3.76475H2.33337C2.05723 3.76475 1.83337 3.54089 1.83337 3.26475V2.3824ZM4.58337 6.14708C4.58337 5.87093 4.35952 5.64708 4.08337 5.64708H2.33337C2.05723 5.64708 1.83337 5.87093 1.83337 6.14708V7.02943C1.83337 7.30557 2.05723 7.52943 2.33337 7.52943H4.08337C4.35952 7.52943 4.58337 7.30557 4.58337 7.02943V6.14708ZM1.83337 9.91181C1.83337 9.63567 2.05723 9.41181 2.33337 9.41181H4.08337C4.35952 9.41181 4.58337 9.63567 4.58337 9.91181V10.7942C4.58337 11.0703 4.35952 11.2942 4.08337 11.2942H2.33337C2.05723 11.2942 1.83337 11.0703 1.83337 10.7942V9.91181ZM9.16663 6.14708C9.16663 5.87093 8.94277 5.64708 8.66663 5.64708H6.91663C6.64048 5.64708 6.41663 5.87093 6.41663 6.14708V7.02943C6.41663 7.30557 6.64048 7.52943 6.91663 7.52943H8.66663C8.94277 7.52943 9.16663 7.30557 9.16663 7.02943V6.14708ZM6.41663 2.3824C6.41663 2.10626 6.64048 1.8824 6.91663 1.8824H8.66663C8.94277 1.8824 9.16663 2.10626 9.16663 2.3824V3.26475C9.16663 3.54089 8.94277 3.76475 8.66663 3.76475H6.91663C6.64048 3.76475 6.41663 3.54089 6.41663 3.26475V2.3824ZM9.16663 9.91181C9.16663 9.63567 8.94277 9.41181 8.66663 9.41181H6.91663C6.64048 9.41181 6.41663 9.63567 6.41663 9.91181V10.7942C6.41663 11.0703 6.64048 11.2942 6.91663 11.2942H8.66663C8.94277 11.2942 9.16663 11.0703 9.16663 10.7942V9.91181Z" fill="currentColor"/>
</svg>
