<svg width="19" height="17" viewBox="0 0 19 17" fill="none" xmlns="http://www.w3.org/2000/svg">
<path fill-rule="evenodd" clip-rule="evenodd" d="M13.8576 6.1898C13.9507 5.80847 14 5.41 14 5C14 2.23858 11.7614 0 9 0C6.23858 0 4 2.23858 4 5C4 5.41311 4.0501 5.81452 4.14456 6.19848C1.79136 6.59972 0 8.64887 0 11.1164C0 13.8718 2.23371 16.1055 4.98912 16.1055C6.64974 16.1055 8.12086 15.2942 9.02773 14.0464C9.9346 15.2943 11.4058 16.1057 13.0664 16.1057C15.8218 16.1057 18.0556 13.872 18.0556 11.1165C18.0556 8.63036 16.237 6.56891 13.8576 6.1898Z" fill="currentColor"/>
</svg>
