<svg width="22" height="16" viewBox="0 0 22 16" fill="none" xmlns="http://www.w3.org/2000/svg">
<path d="M20.4971 7.93338C20.4971 8.89778 20.2028 9.73237 19.7747 10.3033C19.3468 10.8739 18.8321 11.1334 18.3478 11.1334C17.8636 11.1334 17.3488 10.8739 16.921 10.3033C16.4929 9.73237 16.1985 8.89778 16.1985 7.93338C16.1985 6.96899 16.4929 6.1344 16.921 5.56346C17.3488 4.99283 17.8636 4.7334 18.3478 4.7334C18.8321 4.7334 19.3468 4.99283 19.7747 5.56346C20.2028 6.1344 20.4971 6.96899 20.4971 7.93338Z" stroke="currentColor" stroke-width="2"/>
<rect x="8" width="10.2836" height="15.9999" rx="0.5" fill="currentColor"/>
<path fill-rule="evenodd" clip-rule="evenodd" d="M3.97391 6.3996C4.99251 5.89077 5.70627 4.70942 5.70627 3.33331C5.70627 1.49237 4.42888 0 2.85313 0C1.27739 0 0 1.49237 0 3.33331C0 4.82145 0.83471 6.08182 1.98698 6.51024L1.98698 15.4999C1.98698 15.7761 2.21084 15.9999 2.48698 15.9999H3.47391C3.75005 15.9999 3.97391 15.7761 3.97391 15.4999L3.97391 6.3996Z" fill="currentColor"/>
</svg>
