<svg width="18" height="18" viewBox="0 0 18 18" fill="none" xmlns="http://www.w3.org/2000/svg">
<path d="M5.25 7.54639H5.25833M9 7.54639H9.00833M12.75 7.54639H12.7583M7.25 14.7964L8.46667 16.4186C8.6476 16.6599 8.73807 16.7805 8.84897 16.8236C8.94611 16.8614 9.05389 16.8614 9.15103 16.8236C9.26193 16.7805 9.3524 16.6599 9.53333 16.4186L10.75 14.7964C10.9943 14.4707 11.1164 14.3078 11.2654 14.1835C11.4641 14.0177 11.6986 13.9004 11.9504 13.841C12.1393 13.7964 12.3429 13.7964 12.75 13.7964C13.9149 13.7964 14.4973 13.7964 14.9567 13.6061C15.5693 13.3524 16.056 12.8657 16.3097 12.2531C16.5 11.7937 16.5 11.2112 16.5 10.0464V5.29639C16.5 3.89626 16.5 3.19619 16.2275 2.66141C15.9878 2.19101 15.6054 1.80855 15.135 1.56887C14.6002 1.29639 13.9001 1.29639 12.5 1.29639H5.5C4.09987 1.29639 3.3998 1.29639 2.86502 1.56887C2.39462 1.80855 2.01217 2.19101 1.77248 2.66141C1.5 3.19619 1.5 3.89626 1.5 5.29639V10.0464C1.5 11.2112 1.5 11.7937 1.6903 12.2531C1.94404 12.8657 2.43072 13.3524 3.04329 13.6061C3.50272 13.7964 4.08515 13.7964 5.25 13.7964C5.65715 13.7964 5.86072 13.7964 6.04959 13.841C6.30141 13.9004 6.53593 14.0177 6.73458 14.1835C6.88357 14.3078 7.00571 14.4707 7.25 14.7964ZM5.66667 7.54639C5.66667 7.77651 5.48012 7.96305 5.25 7.96305C5.01988 7.96305 4.83333 7.77651 4.83333 7.54639C4.83333 7.31627 5.01988 7.12972 5.25 7.12972C5.48012 7.12972 5.66667 7.31627 5.66667 7.54639ZM9.41667 7.54639C9.41667 7.77651 9.23012 7.96305 9 7.96305C8.76988 7.96305 8.58333 7.77651 8.58333 7.54639C8.58333 7.31627 8.76988 7.12972 9 7.12972C9.23012 7.12972 9.41667 7.31627 9.41667 7.54639ZM13.1667 7.54639C13.1667 7.77651 12.9801 7.96305 12.75 7.96305C12.5199 7.96305 12.3333 7.77651 12.3333 7.54639C12.3333 7.31627 12.5199 7.12972 12.75 7.12972C12.9801 7.12972 13.1667 7.31627 13.1667 7.54639Z" stroke="black" stroke-width="1.5" stroke-linecap="round" stroke-linejoin="round"/>
</svg>
