<svg width="14" height="16" viewBox="0 0 14 16" fill="none" xmlns="http://www.w3.org/2000/svg">
<path fill-rule="evenodd" clip-rule="evenodd" d="M6.99998 2.00008C4.23407 2.00008 1.66665 3.82272 1.66665 6.66675C1.66665 7.71368 1.92559 8.48602 2.38833 9.10367C2.86 9.73325 3.58495 10.2576 4.61083 10.7273L5.15504 10.9764L4.96577 11.5442C4.69417 12.359 4.23329 13.1075 3.76768 13.723C5.37643 13.2176 7.4778 12.4359 8.96351 11.4454C10.4367 10.4632 11.2646 9.69029 11.7327 8.97009C12.1838 8.27603 12.3333 7.58074 12.3333 6.66675C12.3333 3.82272 9.7659 2.00008 6.99998 2.00008ZM0.333313 6.66675C0.333313 2.84411 3.76589 0.666748 6.99998 0.666748C10.2341 0.666748 13.6666 2.84411 13.6666 6.66675C13.6666 7.75276 13.4828 8.72414 12.8506 9.69674C12.2354 10.6432 11.2299 11.5369 9.70311 12.5548C7.71872 13.8777 4.84391 14.8156 3.19846 15.2855C2.65775 15.4399 2.22701 15.1226 2.0416 14.7921C1.85897 14.4666 1.81389 13.9637 2.16274 13.5743C2.62957 13.0533 3.14134 12.3822 3.48409 11.6582C2.60021 11.1895 1.86216 10.6251 1.32124 9.90311C0.658547 9.01855 0.333313 7.95315 0.333313 6.66675Z" fill="#0F0F0F"/>
<path d="M4.99998 6.66675C4.99998 7.21903 4.55227 7.66675 3.99998 7.66675C3.4477 7.66675 2.99998 7.21903 2.99998 6.66675C2.99998 6.11446 3.4477 5.66675 3.99998 5.66675C4.55227 5.66675 4.99998 6.11446 4.99998 6.66675Z" fill="#0F0F0F"/>
<path d="M7.99839 6.66675C7.99839 7.21903 7.55067 7.66675 6.99839 7.66675C6.4461 7.66675 5.99839 7.21903 5.99839 6.66675C5.99839 6.11446 6.4461 5.66675 6.99839 5.66675C7.55067 5.66675 7.99839 6.11446 7.99839 6.66675Z" fill="#0F0F0F"/>
<path d="M9.99998 7.66675C10.5523 7.66675 11 7.21903 11 6.66675C11 6.11446 10.5523 5.66675 9.99998 5.66675C9.4477 5.66675 8.99998 6.11446 8.99998 6.66675C8.99998 7.21903 9.4477 7.66675 9.99998 7.66675Z" fill="#0F0F0F"/>
</svg>
