<svg width="12" height="12" viewBox="0 0 12 12" fill="none" xmlns="http://www.w3.org/2000/svg">
<path d="M9.00001 5.00003L7.00001 3.00003M1.25 10.75L2.94218 10.562C3.14893 10.539 3.2523 10.5276 3.34892 10.4963C3.43464 10.4685 3.51622 10.4293 3.59144 10.3797C3.67623 10.3238 3.74977 10.2503 3.89686 10.1032L10.5 3.50003C11.0523 2.94775 11.0523 2.05231 10.5 1.50003C9.94773 0.947745 9.0523 0.947744 8.50001 1.50003L1.89686 8.10317C1.74977 8.25026 1.67623 8.3238 1.62032 8.40859C1.57072 8.48381 1.53151 8.56538 1.50376 8.65111C1.47248 8.74773 1.46099 8.8511 1.43802 9.05785L1.25 10.75Z" stroke="#666666" stroke-linecap="round" stroke-linejoin="round"/>
</svg>
