<svg width="13" height="15" viewBox="0 0 13 15" fill="none" xmlns="http://www.w3.org/2000/svg">
<path fill-rule="evenodd" clip-rule="evenodd" d="M6.50227 8.75215C8.05557 8.75215 9.31477 7.49295 9.31477 5.93965C9.31477 4.38635 8.05557 3.12715 6.50227 3.12715C4.94897 3.12715 3.68977 4.38635 3.68977 5.93965C3.68977 7.49295 4.94897 8.75215 6.50227 8.75215ZM6.50227 7.5044C5.63809 7.5044 4.93753 6.80384 4.93753 5.93965C4.93753 5.07547 5.63809 4.37491 6.50227 4.37491C7.36645 4.37491 8.06701 5.07547 8.06701 5.93965C8.06701 6.80384 7.36645 7.5044 6.50227 7.5044Z" fill="#0F0F0F"/>
<path fill-rule="evenodd" clip-rule="evenodd" d="M12.295 7.23858C13.1031 3.61758 10.2533 0.00219727 6.50002 0.00219727C2.74783 0.00219727 -0.102228 3.62254 0.705126 7.23904C1.32829 10.1763 3.84828 13.0291 5.35227 14.5168C5.9964 15.1539 7.00365 15.1539 7.64778 14.5168C9.15185 13.029 11.672 10.176 12.295 7.23858ZM6.50002 1.2522C9.44531 1.2522 11.7105 4.11862 11.075 6.96633C10.7698 8.33465 10.085 9.56345 9.28135 10.6994C8.4415 11.8865 7.48936 12.9153 6.76872 13.6281C6.61163 13.7835 6.38842 13.7835 6.23133 13.6281C5.51073 12.9153 4.55865 11.8866 3.71883 10.6995C2.91514 9.56355 2.23056 8.33503 1.9251 6.96669C1.29026 4.123 3.55635 1.2522 6.50002 1.2522Z" fill="#0F0F0F"/>
</svg>
