<svg width="21" height="17" viewBox="0 0 21 17" fill="none" xmlns="http://www.w3.org/2000/svg">
<path fill-rule="evenodd" clip-rule="evenodd" d="M15.4 1.32809C14.3909 -0.0167467 12.25 0.696591 12.25 2.37764V5.00812C8.15746 4.87832 5.445 6.31838 3.69287 8.29502C1.87132 10.35 1.1696 12.8911 0.894187 14.5399C0.773531 15.2623 1.24199 15.7832 1.73699 15.9616C2.21278 16.133 2.84667 16.0498 3.25944 15.5465C4.64235 13.8603 7.4375 11.5523 12.25 11.5523V14.6224C12.25 16.3034 14.3909 17.0167 15.4 15.6719L19.6 10.0743C20.3 9.14139 20.3 7.85861 19.6 6.92568L15.4 1.32809ZM14 2.37764L18.2 7.97523C18.4333 8.2862 18.4333 8.7138 18.2 9.02477L14 14.6224V10.6875C14 10.2043 13.6082 9.8125 13.125 9.8125H12.25C6.125 9.8125 2.9742 13.2793 2.9742 13.2793C3.34009 12.0316 3.95943 10.6325 5.00244 9.45585C6.37145 7.91142 8.3125 6.75 12.25 6.75H13.125C13.6082 6.75 14 6.35825 14 5.875V2.37764Z" fill="white"/>
</svg>
