<svg width="27" height="27" viewBox="0 0 27 27" fill="none" xmlns="http://www.w3.org/2000/svg">
<path opacity="0.6" fill-rule="evenodd" clip-rule="evenodd" d="M25.773 13.7793C25.773 20.3846 20.4183 25.7393 13.813 25.7393C7.20766 25.7393 1.85299 20.3846 1.85299 13.7793C1.85299 7.17397 7.20766 1.8193 13.813 1.8193C20.4183 1.8193 25.773 7.17397 25.773 13.7793ZM26.813 13.7793C26.813 20.959 20.9927 26.7793 13.813 26.7793C6.63329 26.7793 0.812988 20.959 0.812988 13.7793C0.812988 6.5996 6.63329 0.779297 13.813 0.779297C20.9927 0.779297 26.813 6.5996 26.813 13.7793ZM14.5922 6.23939C14.5922 5.80861 14.243 5.45939 13.8122 5.45939C13.3814 5.45939 13.0322 5.80861 13.0322 6.23939V12.9994H6.79221C6.36142 12.9994 6.01221 13.3486 6.01221 13.7794C6.01221 14.2102 6.36142 14.5594 6.79221 14.5594H13.0322V21.3194C13.0322 21.7502 13.3814 22.0994 13.8122 22.0994C14.243 22.0994 14.5922 21.7502 14.5922 21.3194V14.5594H20.8322C21.263 14.5594 21.6122 14.2102 21.6122 13.7794C21.6122 13.3486 21.263 12.9994 20.8322 12.9994H14.5922V6.23939Z" fill="#67D393"/>
</svg>
