<svg width="23" height="22" viewBox="0 0 23 22" fill="none" xmlns="http://www.w3.org/2000/svg">
<path d="M1.5 8.08425C1.5 7.73394 1.5 7.55878 1.51462 7.41124C1.6556 5.9883 2.78127 4.86263 4.20421 4.72165C4.35174 4.70703 4.53636 4.70703 4.90558 4.70703C5.04785 4.70703 5.11899 4.70703 5.17939 4.70337C5.95061 4.65667 6.62595 4.16991 6.91414 3.45303C6.93671 3.39689 6.95781 3.3336 7 3.20703C7.04219 3.08046 7.06329 3.01717 7.08586 2.96103C7.37405 2.24415 8.04939 1.7574 8.82061 1.71069C8.88101 1.70703 8.94772 1.70703 9.08114 1.70703H13.9189C14.0523 1.70703 14.119 1.70703 14.1794 1.71069C14.9506 1.7574 15.626 2.24415 15.9141 2.96103C15.9367 3.01717 15.9578 3.08046 16 3.20703C16.0422 3.3336 16.0633 3.39689 16.0859 3.45303C16.374 4.16991 17.0494 4.65667 17.8206 4.70337C17.881 4.70703 17.9521 4.70703 18.0944 4.70703C18.4636 4.70703 18.6483 4.70703 18.7958 4.72165C20.2187 4.86263 21.3444 5.9883 21.4854 7.41124C21.5 7.55878 21.5 7.73394 21.5 8.08425V15.907C21.5 17.5872 21.5 18.4273 21.173 19.069C20.8854 19.6335 20.4265 20.0924 19.862 20.3801C19.2202 20.707 18.3802 20.707 16.7 20.707H6.3C4.61984 20.707 3.77976 20.707 3.13803 20.3801C2.57354 20.0924 2.1146 19.6335 1.82698 19.069C1.5 18.4273 1.5 17.5872 1.5 15.907V8.08425Z" stroke="white" stroke-width="1.5" stroke-linecap="round" stroke-linejoin="round"/>
<path d="M11.5 16.207C13.7091 16.207 15.5 14.4162 15.5 12.207C15.5 9.99789 13.7091 8.20703 11.5 8.20703C9.29086 8.20703 7.5 9.99789 7.5 12.207C7.5 14.4162 9.29086 16.207 11.5 16.207Z" stroke="white" stroke-width="1.5" stroke-linecap="round" stroke-linejoin="round"/>
</svg>
