<svg width="24" height="20" viewBox="0 0 24 20" fill="none" xmlns="http://www.w3.org/2000/svg">
<path d="M11.9998 7.42992V11.4299M11.9998 15.4299H12.0098M10.6151 2.32164L2.39019 16.5283C1.93398 17.3163 1.70588 17.7102 1.73959 18.0336C1.769 18.3157 1.91677 18.572 2.14613 18.7387C2.40908 18.9299 2.86435 18.9299 3.77487 18.9299H20.2246C21.1352 18.9299 21.5904 18.9299 21.8534 18.7387C22.0827 18.572 22.2305 18.3157 22.2599 18.0336C22.2936 17.7102 22.0655 17.3163 21.6093 16.5283L13.3844 2.32164C12.9299 1.53648 12.7026 1.14389 12.4061 1.01204C12.1474 0.897028 11.8521 0.897028 11.5935 1.01204C11.2969 1.14389 11.0696 1.53648 10.6151 2.32164Z" stroke="black" stroke-width="1.5" stroke-linecap="round" stroke-linejoin="round"/>
</svg>
