<svg width="21" height="21" viewBox="0 0 21 21" fill="none" xmlns="http://www.w3.org/2000/svg">
<path fill-rule="evenodd" clip-rule="evenodd" d="M11.0455 0.75C11.0455 0.335786 10.7097 0 10.2955 0C9.88124 0 9.54545 0.335786 9.54545 0.75V9.54545H0.75C0.335786 9.54545 0 9.88124 0 10.2955C0 10.7097 0.335786 11.0455 0.75 11.0455H9.54545V19.8409C9.54545 20.2551 9.88124 20.5909 10.2955 20.5909C10.7097 20.5909 11.0455 20.2551 11.0455 19.8409V11.0455H19.8409C20.2551 11.0455 20.5909 10.7097 20.5909 10.2955C20.5909 9.88124 20.2551 9.54545 19.8409 9.54545H11.0455V0.75Z" fill="white"/>
</svg>
