<svg width="19" height="19" viewBox="0 0 19 19" fill="none" xmlns="http://www.w3.org/2000/svg">
<path d="M8.5 1C8.77614 1 9 0.776142 9 0.5C9 0.223858 8.77614 0 8.5 0V1ZM0.5 9.5L1 9.50002L0.5 9.5ZM18.5 9.5H18H18.5ZM13 0.5C12.7239 0.5 12.5 0.723858 12.5 1V5.5C12.5 5.77614 12.7239 6 13 6C13.2761 6 13.5 5.77614 13.5 5.5V1.5H17.5C17.7761 1.5 18 1.27614 18 1C18 0.723858 17.7761 0.5 17.5 0.5H13ZM8.5 0C7.36063 0 5.252 0.681699 3.43271 2.17614C1.58817 3.69133 0.000121206 6.07511 0 9.49998L1 9.50002C1.00011 6.42489 2.41206 4.30867 4.06746 2.94886C5.74811 1.5683 7.63937 1 8.5 1V0ZM0 9.49998C-0.000130057 13.1756 1.58186 15.5725 3.57954 17.0351C5.55355 18.4804 7.91152 19 9.5 19V18C8.08848 18 5.94633 17.5286 4.17027 16.2282C2.41789 14.9453 0.999882 12.8422 1 9.50002L0 9.49998ZM9.5 19C10.3391 19 12.6833 18.601 14.8309 17.2343C17.0082 15.8488 19 13.4532 19 9.5H18C18 13.0468 16.2418 15.1512 14.2941 16.3907C12.3167 17.649 10.1609 18 9.5 18V19ZM19 9.5C19 6.58301 17.6698 4.46568 16.2992 3.02976C15.6147 2.31274 14.917 1.76166 14.3637 1.36075C14.0878 1.16086 13.8449 0.996173 13.6632 0.871246C13.5708 0.80769 13.4974 0.756532 13.4403 0.714595C13.4121 0.693845 13.3906 0.677339 13.3747 0.6644C13.3579 0.650752 13.3523 0.645236 13.3536 0.646447L12.6464 1.35355C12.7496 1.45671 12.9307 1.5811 13.0965 1.69516C13.284 1.82414 13.5137 1.97977 13.7769 2.1705C14.3018 2.55084 14.9478 3.06226 15.5758 3.72024C16.8302 5.03432 18 6.91699 18 9.5H19Z" fill="black"/>
</svg>
