<svg width="23" height="23" viewBox="0 0 23 23" fill="none" xmlns="http://www.w3.org/2000/svg">
<path d="M5.69434 18.1112C5.69434 18.5254 6.03012 18.8612 6.44434 18.8612C6.85855 18.8612 7.19434 18.5254 7.19434 18.1112H5.69434ZM18.6413 10.086C18.9342 9.7931 18.9342 9.31823 18.6413 9.02533L13.8684 4.25236C13.5755 3.95947 13.1006 3.95947 12.8077 4.25236C12.5148 4.54526 12.5148 5.02013 12.8077 5.31302L17.0503 9.55566L12.8077 13.7983C12.5148 14.0912 12.5148 14.5661 12.8077 14.859C13.1006 15.1519 13.5755 15.1519 13.8684 14.859L18.6413 10.086ZM7.19434 18.1112V11.5557H5.69434V18.1112H7.19434ZM8.44434 10.3057H18.111V8.80566H8.44434V10.3057ZM7.19434 11.5557C7.19434 10.8653 7.75398 10.3057 8.44434 10.3057V8.80566C6.92555 8.80566 5.69434 10.0369 5.69434 11.5557H7.19434Z" fill="white"/>
<path d="M1 20V3C1 1.89543 1.89543 1 3 1H6.4H20C21.1046 1 22 1.89543 22 3V20C22 21.1046 21.1046 22 20 22H3C1.89543 22 1 21.1046 1 20Z" stroke="white" stroke-width="1.5" stroke-linecap="round"/>
</svg>
